<?xml version="1.0" encoding="UTF-8" standalone="no"?>
<!-- Created with Inkscape (http://www.inkscape.org/) -->

<svg
   xmlns:dc="http://purl.org/dc/elements/1.1/"
   xmlns:cc="http://creativecommons.org/ns#"
   xmlns:rdf="http://www.w3.org/1999/02/22-rdf-syntax-ns#"
   xmlns:svg="http://www.w3.org/2000/svg"
   xmlns="http://www.w3.org/2000/svg"
   xmlns:sodipodi="http://sodipodi.sourceforge.net/DTD/sodipodi-0.dtd"
   xmlns:inkscape="http://www.inkscape.org/namespaces/inkscape"
   width="297mm"
   height="181.31787mm"
   viewBox="0 0 297 181.31787"
   version="1.1"
   id="svg4754"
   sodipodi:docname="brand.svg"
   inkscape:version="0.92.1 r15371">
  <defs
     id="defs4748" />
  <sodipodi:namedview
     id="base"
     pagecolor="#ffffff"
     bordercolor="#666666"
     borderopacity="1.0"
     inkscape:pageopacity="0.0"
     inkscape:pageshadow="2"
     inkscape:zoom="0.31161444"
     inkscape:cx="104.96681"
     inkscape:cy="916.14701"
     inkscape:document-units="mm"
     inkscape:current-layer="layer1"
     showgrid="false"
     inkscape:snap-object-midpoints="true"
     fit-margin-top="0"
     fit-margin-left="0"
     fit-margin-right="0"
     fit-margin-bottom="0"
     inkscape:window-width="1920"
     inkscape:window-height="1001"
     inkscape:window-x="-9"
     inkscape:window-y="-9"
     inkscape:window-maximized="1"
     units="mm"
     height="297mm" />
  <metadata
     id="metadata4751">
    <rdf:RDF>
      <cc:Work
         rdf:about="">
        <dc:format>image/svg+xml</dc:format>
        <dc:type
           rdf:resource="http://purl.org/dc/dcmitype/StillImage" />
        <dc:title></dc:title>
      </cc:Work>
    </rdf:RDF>
  </metadata>
  <g
     inkscape:label="Camada 1"
     inkscape:groupmode="layer"
     id="layer1"
     transform="translate(135.54218,-56.191554)">
    <g
       id="g5418"
       transform="matrix(0.61735534,0,0,0.61735534,-51.864491,55.173223)"
       style="stroke-width:1.61981261">
      <g
         transform="rotate(45,885.1304,-274.01654)"
         id="g4722"
         style="stroke-width:1.61981261">
        <path
           inkscape:connector-curvature="0"
           id="path4665"
           d="m 632.2591,368.70542 c -35.02517,46.83601 -72.86477,90.00428 -56.55006,165.45692 l -49.3577,58.68582 51.72657,13.33459 12.53876,-16.94781 10.20453,13.6307 h 31.4379 31.43787 l 10.20506,-13.6307 12.53826,16.94781 51.72707,-13.33459 -49.35773,-58.68582 C 705.12434,458.7097 660.50015,410.60752 632.2591,368.70542 Z"
           style="fill:#2b3d4e;fill-opacity:0.98853485;stroke:none;stroke-width:0.4285754px;stroke-linecap:butt;stroke-linejoin:miter;stroke-opacity:1"
           sodipodi:nodetypes="ccccccccccccc" />
        <path
           inkscape:connector-curvature="0"
           id="path4667"
           d="m 632.2591,387.63139 c -39.09965,53.56711 -57.17791,83.78253 -44.3756,151.38492 l -41.86875,49.7861 28.46853,6.03167 c 11.25236,-13.53042 16.3072,-25.2209 31.38414,-2.52025 h 26.39168 26.39219 c 15.07693,-22.70065 20.13175,-11.01017 31.38411,2.52025 l 28.46802,-6.03167 -41.86875,-49.7861 C 689.43701,471.41392 671.35872,441.1985 632.2591,387.63139 Z"
           style="opacity:1;fill:#4b6980;fill-opacity:1;stroke:none;stroke-width:0.42857546px;stroke-linecap:butt;stroke-linejoin:miter;stroke-opacity:1"
           sodipodi:nodetypes="ccccccccccc" />
        <path
           style="opacity:1;fill:#eb675e;fill-opacity:1;stroke:none;stroke-width:1.61981285px;stroke-linecap:butt;stroke-linejoin:miter;stroke-opacity:1"
           d="m 2389.6406,1465.0645 c -25.9623,35.5687 -49.4606,68.4061 -70.3164,99.7714 19.9601,14.9428 44.9634,23.1564 70.8145,23.1817 25.5535,-0.043 50.279,-8.0857 70.1191,-22.7266 -20.9308,-31.5027 -44.5293,-64.4858 -70.6172,-100.2265 z"
           transform="scale(0.26458333)"
           id="path4703"
           inkscape:connector-curvature="0" />
        <path
           inkscape:connector-curvature="0"
           id="path4669"
           d="m 612.90679,411.86529 -8.62997,5.54747 a 37.462608,32.052913 0 0 0 28.11404,10.90889 37.462608,32.052913 0 0 0 27.99676,-10.81484 l -8.64238,-5.55573 a 29.665512,27.179725 0 0 1 -19.35438,6.6244 29.665512,27.179725 0 0 1 -19.48407,-6.71019 z"
           style="opacity:1;fill:#2a3c4d;fill-opacity:0.99607843;stroke:none;stroke-width:3.23962522;stroke-linecap:round;stroke-linejoin:round;stroke-miterlimit:4;stroke-dasharray:none;stroke-opacity:1;paint-order:normal" />
        <path
           style="opacity:1;fill:#eb675e;fill-opacity:1;stroke:none;stroke-width:3.23962522;stroke-linecap:round;stroke-linejoin:round;stroke-miterlimit:4;stroke-dasharray:none;stroke-opacity:1;paint-order:normal"
           d="m 632.12684,450.42002 c -14.1843,1.7e-4 -25.68283,11.49891 -25.68276,25.68321 -7e-5,14.1843 11.49846,25.68304 25.68276,25.68321 14.18447,7e-5 25.68327,-11.49874 25.6832,-25.68321 7e-5,-14.18447 -11.49873,-25.68328 -25.6832,-25.68321 z"
           id="path4697"
           inkscape:connector-curvature="0"
           sodipodi:nodetypes="ccccc" />
        <path
           inkscape:connector-curvature="0"
           id="path4671"
           d="m 632.12681,447.23419 a 28.868888,28.868888 0 0 0 -28.86853,28.86904 28.868888,28.868888 0 0 0 28.86853,28.86904 28.868888,28.868888 0 0 0 28.86903,-28.86904 28.868888,28.868888 0 0 0 -28.86903,-28.86904 z m 0,10.60142 a 18.267854,18.267854 0 0 1 18.26813,18.26762 18.267854,18.267854 0 0 1 -18.26813,18.26814 18.267854,18.267854 0 0 1 -18.26763,-18.26814 18.267854,18.267854 0 0 1 18.26763,-18.26762 z"
           style="opacity:1;fill:#2a3c4e;fill-opacity:1;stroke:none;stroke-width:3.23962522;stroke-linecap:round;stroke-linejoin:round;stroke-miterlimit:4;stroke-dasharray:none;stroke-opacity:1;paint-order:normal" />
        <g
           id="g4691"
           transform="translate(-180.02982,351.35231)"
           style="stroke-width:1.61981261">
          <g
             id="g4679"
             style="stroke-width:1.61981261">
            <path
               inkscape:connector-curvature="0"
               id="path4675"
               transform="scale(0.26458333)"
               d="m 3070.0684,992.47656 c -114.0088,0 -197.3798,120.14554 0,326.33394 197.3797,-206.1884 114.0087,-326.33394 0,-326.33394 z"
               style="opacity:1;fill:#2a3c4e;fill-opacity:1;stroke:none;stroke-width:1.61981261px;stroke-linecap:butt;stroke-linejoin:miter;stroke-opacity:1" />
            <path
               inkscape:connector-curvature="0"
               id="path4677"
               transform="scale(0.26458333)"
               d="m 3070.0684,1041.3984 c -45.338,0 -115.1933,63.4672 0,207.836 115.1932,-144.3688 45.3379,-207.836 0,-207.836 z"
               style="opacity:1;fill:#ffd766;fill-opacity:1;stroke:none;stroke-width:1.61981261px;stroke-linecap:butt;stroke-linejoin:miter;stroke-opacity:1" />
          </g>
          <g
             id="g4689"
             style="opacity:1;fill:#2a3c4e;fill-opacity:1;stroke-width:1.61981261">
            <rect
               rx="7.9679999"
               y="256.77802"
               x="722.87207"
               height="90.858757"
               width="13.957566"
               id="rect4681"
               style="opacity:1;fill:#2a3c4e;fill-opacity:1;stroke:none;stroke-width:3.23962522;stroke-linecap:round;stroke-linejoin:round;stroke-miterlimit:4;stroke-dasharray:none;stroke-opacity:1;paint-order:normal" />
            <rect
               rx="7.9679999"
               style="opacity:1;fill:#2a3c4e;fill-opacity:1;stroke:none;stroke-width:3.23962522;stroke-linecap:round;stroke-linejoin:round;stroke-miterlimit:4;stroke-dasharray:none;stroke-opacity:1;paint-order:normal"
               id="rect4683"
               width="13.957566"
               height="64.89119"
               x="749.81342"
               y="282.74557" />
            <rect
               transform="scale(-1,1)"
               style="opacity:1;fill:#2a3c4e;fill-opacity:1;stroke:none;stroke-width:3.23962522;stroke-linecap:round;stroke-linejoin:round;stroke-miterlimit:4;stroke-dasharray:none;stroke-opacity:1;paint-order:normal"
               id="rect4685"
               width="13.957566"
               height="90.858757"
               x="-901.70624"
               y="256.77802"
               rx="7.9679999" />
            <rect
               transform="scale(-1,1)"
               y="282.74557"
               x="-874.76489"
               height="64.89119"
               width="13.957566"
               id="rect4687"
               style="opacity:1;fill:#2a3c4e;fill-opacity:1;stroke:none;stroke-width:3.23962522;stroke-linecap:round;stroke-linejoin:round;stroke-miterlimit:4;stroke-dasharray:none;stroke-opacity:1;paint-order:normal"
               rx="7.9679999" />
          </g>
        </g>
      </g>
      <g
         transform="translate(-532.98386,-329.47228)"
         id="text4517-9"
         style="font-style:normal;font-variant:normal;font-weight:normal;font-stretch:normal;font-size:10.26294136px;line-height:125%;font-family:'Tabula ITC Std';-inkscape-font-specification:'Tabula ITC Std';letter-spacing:0px;word-spacing:0px;fill:#2a3c4e;fill-opacity:0.99215686;stroke:none;stroke-width:4.2857542;stroke-linecap:butt;stroke-linejoin:miter;stroke-miterlimit:4;stroke-dasharray:none;stroke-opacity:1"
         aria-label="&lt;">
        <path
           inkscape:connector-curvature="0"
           id="path5353"
           style="font-style:normal;font-variant:normal;font-weight:bold;font-stretch:normal;font-size:317.5px;font-family:'Tabula ITC Std';-inkscape-font-specification:'Tabula ITC Std, Bold';font-variant-ligatures:normal;font-variant-caps:normal;font-variant-numeric:normal;font-feature-settings:normal;text-align:center;letter-spacing:-17.19791603px;writing-mode:lr-tb;text-anchor:middle;fill:#2a3c4e;fill-opacity:0.99215686;stroke-width:4.2857542;stroke-miterlimit:4;stroke-dasharray:none"
           d="m 486.34168,435.74478 v -1.27 l -18.7325,-20.955 -70.1675,62.23 v 5.715 l 69.215,60.96 19.05,-22.225 v -1.5875 l -46.6725,-40.3225 z" />
      </g>
      <g
         aria-label="&lt;"
         style="font-style:normal;font-variant:normal;font-weight:normal;font-stretch:normal;font-size:10.26294136px;line-height:125%;font-family:'Tabula ITC Std';-inkscape-font-specification:'Tabula ITC Std';letter-spacing:0px;word-spacing:0px;fill:#2a3c4e;fill-opacity:0.99215686;stroke:none;stroke-width:4.2857542;stroke-linecap:butt;stroke-linejoin:miter;stroke-miterlimit:4;stroke-dasharray:none;stroke-opacity:1"
         id="g5394"
         transform="matrix(-1,0,0,1,742.98386,-329.47228)">
        <path
           d="m 486.34168,435.74478 v -1.27 l -18.7325,-20.955 -70.1675,62.23 v 5.715 l 69.215,60.96 19.05,-22.225 v -1.5875 l -46.6725,-40.3225 z"
           style="font-style:normal;font-variant:normal;font-weight:bold;font-stretch:normal;font-size:317.5px;font-family:'Tabula ITC Std';-inkscape-font-specification:'Tabula ITC Std, Bold';font-variant-ligatures:normal;font-variant-caps:normal;font-variant-numeric:normal;font-feature-settings:normal;text-align:center;letter-spacing:-17.19791603px;writing-mode:lr-tb;text-anchor:middle;fill:#2a3c4e;fill-opacity:0.99215686;stroke-width:4.2857542;stroke-miterlimit:4;stroke-dasharray:none"
           id="path5392"
           inkscape:connector-curvature="0" />
      </g>
    </g>
  </g>
</svg>
