<?xml version="1.0" encoding="UTF-8" standalone="no"?>
<!-- Created with Inkscape (http://www.inkscape.org/) -->

<svg
   xmlns:dc="http://purl.org/dc/elements/1.1/"
   xmlns:cc="http://creativecommons.org/ns#"
   xmlns:rdf="http://www.w3.org/1999/02/22-rdf-syntax-ns#"
   xmlns:svg="http://www.w3.org/2000/svg"
   xmlns="http://www.w3.org/2000/svg"
   xmlns:sodipodi="http://sodipodi.sourceforge.net/DTD/sodipodi-0.dtd"
   xmlns:inkscape="http://www.inkscape.org/namespaces/inkscape"
   width="297mm"
   height="181.31787mm"
   viewBox="0 0 297 181.31787"
   version="1.1"
   id="svg4754"
   sodipodi:docname="brand-black.svg"
   inkscape:version="0.92.3 (2405546, 2018-03-11)">
  <defs
     id="defs4748" />
  <sodipodi:namedview
     id="base"
     pagecolor="#ffffff"
     bordercolor="#666666"
     borderopacity="1.0"
     inkscape:pageopacity="0.0"
     inkscape:pageshadow="2"
     inkscape:zoom="0.31161444"
     inkscape:cx="130.95245"
     inkscape:cy="916.14701"
     inkscape:document-units="mm"
     inkscape:current-layer="layer1"
     showgrid="false"
     inkscape:snap-object-midpoints="true"
     fit-margin-top="0"
     fit-margin-left="0"
     fit-margin-right="0"
     fit-margin-bottom="0"
     inkscape:window-width="1920"
     inkscape:window-height="1001"
     inkscape:window-x="-9"
     inkscape:window-y="-9"
     inkscape:window-maximized="1"
     units="mm"
     height="297mm" />
  <metadata
     id="metadata4751">
    <rdf:RDF>
      <cc:Work
         rdf:about="">
        <dc:format>image/svg+xml</dc:format>
        <dc:type
           rdf:resource="http://purl.org/dc/dcmitype/StillImage" />
        <dc:title></dc:title>
      </cc:Work>
    </rdf:RDF>
  </metadata>
  <g
     inkscape:label="Camada 1"
     inkscape:groupmode="layer"
     id="layer1"
     transform="translate(135.54218,-56.191554)">
    <g
       id="g4423"
       style="fill:#000000">
      <path
         inkscape:connector-curvature="0"
         id="path4665"
         transform="matrix(0.26458333,0,0,0.26458333,-135.54218,56.191554)"
         d="M 903.9082,0 C 768.8454,19.486707 635.18888,28.278557 537.61719,179.68555 l -178.25977,15.39062 63.3418,107.34375 48.65039,-7.27344 -5.65234,39.32422 51.86914,51.8711 51.86914,51.86914 39.32617,-5.65235 -7.27539,48.64844 107.3457,63.34375 15.39063,-178.25976 C 875.62964,268.7193 881.36882,115.72921 903.9082,0 Z M 872.68164,31.226562 C 848.81172,184.11746 828.78675,263.79632 696.12695,354.21094 l -13.0625,151.22265 -56.92187,-37.01953 c 3.75857,-40.88912 14.7062,-68.51588 -47.62305,-55.9375 L 534.97656,368.93164 491.43164,325.38867 C 504.01,263.05942 476.38326,274.00704 435.49414,277.76562 l -37.01953,-56.92187 151.2207,-13.0625 C 640.10999,75.121518 719.79071,55.09643 872.68164,31.226562 Z"
         style="fill:#000000;fill-opacity:0.98853485;stroke:none;stroke-width:0.99999994px;stroke-linecap:butt;stroke-linejoin:miter;stroke-opacity:1" />
      <path
         style="opacity:1;fill:#000000;fill-opacity:0.99607843;stroke:none;stroke-width:1.99999988;stroke-linecap:round;stroke-linejoin:round;stroke-miterlimit:4;stroke-dasharray:none;stroke-opacity:1;paint-order:normal"
         d="m 76.327831,66.584418 -6.188965,-1.345622 a 23.127741,19.788037 45 0 0 7.51067,17.034919 23.127741,19.788037 45 0 0 16.942667,7.50053 L 93.244768,83.576256 A 18.314162,16.779548 45 0 1 81.904092,78.01916 18.314162,16.779548 45 0 1 76.327831,66.584418 Z"
         id="path4669"
         inkscape:connector-curvature="0" />
      <path
         style="opacity:1;fill:#000000;fill-opacity:1;stroke:none;stroke-width:1.99999988;stroke-linecap:round;stroke-linejoin:round;stroke-miterlimit:4;stroke-dasharray:none;stroke-opacity:1;paint-order:normal"
         d="m 69.278261,90.414455 a 17.822362,17.822362 0 0 0 -25.204536,2.23e-4 17.822362,17.822362 0 0 0 -2.23e-4,25.204532 17.822362,17.822362 0 0 0 25.204755,0 17.822362,17.822362 0 0 0 4e-6,-25.204755 z m -4.627903,4.627903 a 11.277757,11.277757 0 0 1 2.23e-4,15.949172 11.277757,11.277757 0 0 1 -15.949403,1e-5 11.277757,11.277757 0 0 1 2.23e-4,-15.949186 11.277757,11.277757 0 0 1 15.948957,4e-6 z"
         id="path4671"
         inkscape:connector-curvature="0" />
      <path
         inkscape:connector-curvature="0"
         id="path4675"
         transform="matrix(0.26458333,0,0,0.26458333,-135.54218,56.191554)"
         d="m 444.9668,380.125 c -42.67558,0.39783 -85.4931,45.83478 -88.13672,166.95312 C 533.00214,543.2328 549.05603,454.39003 499.28711,404.62109 483.73431,389.0683 464.36479,379.94417 444.9668,380.125 Z m 5.71679,35.30273 c 11.12697,-0.1601 21.0612,4.36393 27.2461,10.54883 19.79163,19.79161 22.58163,77.99234 -90.72657,90.72852 8.75612,-77.89941 39.00116,-100.92511 63.48047,-101.27735 z"
         style="opacity:1;fill:#000000;fill-opacity:1;stroke:none;stroke-width:0.99999994px;stroke-linecap:butt;stroke-linejoin:miter;stroke-opacity:1" />
      <rect
         transform="rotate(45)"
         style="opacity:1;fill:#000000;fill-opacity:1;stroke:none;stroke-width:1.99999988;stroke-linecap:round;stroke-linejoin:round;stroke-miterlimit:4;stroke-dasharray:none;stroke-opacity:1;paint-order:normal"
         id="rect4681"
         width="8.6167784"
         height="56.09214"
         x="57.799503"
         y="114.27563"
         rx="4.9190874" />
      <rect
         transform="rotate(45)"
         y="130.30684"
         x="74.431885"
         height="40.060925"
         width="8.6167784"
         id="rect4683"
         style="opacity:1;fill:#000000;fill-opacity:1;stroke:none;stroke-width:1.99999988;stroke-linecap:round;stroke-linejoin:round;stroke-miterlimit:4;stroke-dasharray:none;stroke-opacity:1;paint-order:normal"
         rx="4.9190874" />
      <rect
         rx="4.9190874"
         y="114.27563"
         x="-168.20374"
         height="56.09214"
         width="8.6167784"
         id="rect4685"
         style="opacity:1;fill:#000000;fill-opacity:1;stroke:none;stroke-width:1.99999988;stroke-linecap:round;stroke-linejoin:round;stroke-miterlimit:4;stroke-dasharray:none;stroke-opacity:1;paint-order:normal"
         transform="matrix(-0.70710678,-0.70710678,-0.70710678,0.70710678,0,0)" />
      <rect
         rx="4.9190874"
         style="opacity:1;fill:#000000;fill-opacity:1;stroke:none;stroke-width:1.99999988;stroke-linecap:round;stroke-linejoin:round;stroke-miterlimit:4;stroke-dasharray:none;stroke-opacity:1;paint-order:normal"
         id="rect4687"
         width="8.6167784"
         height="40.060925"
         x="-151.57135"
         y="130.30684"
         transform="matrix(-0.70710678,-0.70710678,-0.70710678,0.70710678,0,0)" />
      <g
         transform="matrix(0.61735534,0,0,0.61735534,-380.90492,-148.22825)"
         id="text4517-9"
         style="font-style:normal;font-variant:normal;font-weight:normal;font-stretch:normal;font-size:10.26294136px;line-height:125%;font-family:'Tabula ITC Std';-inkscape-font-specification:'Tabula ITC Std';letter-spacing:0px;word-spacing:0px;fill:#000000;fill-opacity:0.99215686;stroke:none;stroke-width:4.2857542;stroke-linecap:butt;stroke-linejoin:miter;stroke-miterlimit:4;stroke-dasharray:none;stroke-opacity:1"
         aria-label="&lt;">
        <path
           inkscape:connector-curvature="0"
           id="path5353"
           style="font-style:normal;font-variant:normal;font-weight:bold;font-stretch:normal;font-size:317.5px;font-family:'Tabula ITC Std';-inkscape-font-specification:'Tabula ITC Std, Bold';font-variant-ligatures:normal;font-variant-caps:normal;font-variant-numeric:normal;font-feature-settings:normal;text-align:center;letter-spacing:-17.19791603px;writing-mode:lr-tb;text-anchor:middle;fill:#000000;fill-opacity:0.99215686;stroke-width:4.2857542;stroke-miterlimit:4;stroke-dasharray:none"
           d="m 486.34168,435.74478 v -1.27 l -18.7325,-20.955 -70.1675,62.23 v 5.715 l 69.215,60.96 19.05,-22.225 v -1.5875 l -46.6725,-40.3225 z" />
      </g>
      <g
         aria-label="&lt;"
         style="font-style:normal;font-variant:normal;font-weight:normal;font-stretch:normal;font-size:10.26294136px;line-height:125%;font-family:'Tabula ITC Std';-inkscape-font-specification:'Tabula ITC Std';letter-spacing:0px;word-spacing:0px;fill:#000000;fill-opacity:0.99215686;stroke:none;stroke-width:4.2857542;stroke-linecap:butt;stroke-linejoin:miter;stroke-miterlimit:4;stroke-dasharray:none;stroke-opacity:1"
         id="g5394"
         transform="matrix(-0.61735534,0,0,0.61735534,406.82056,-148.22825)">
        <path
           d="m 486.34168,435.74478 v -1.27 l -18.7325,-20.955 -70.1675,62.23 v 5.715 l 69.215,60.96 19.05,-22.225 v -1.5875 l -46.6725,-40.3225 z"
           style="font-style:normal;font-variant:normal;font-weight:bold;font-stretch:normal;font-size:317.5px;font-family:'Tabula ITC Std';-inkscape-font-specification:'Tabula ITC Std, Bold';font-variant-ligatures:normal;font-variant-caps:normal;font-variant-numeric:normal;font-feature-settings:normal;text-align:center;letter-spacing:-17.19791603px;writing-mode:lr-tb;text-anchor:middle;fill:#000000;fill-opacity:0.99215686;stroke-width:4.2857542;stroke-miterlimit:4;stroke-dasharray:none"
           id="path5392"
           inkscape:connector-curvature="0" />
      </g>
    </g>
  </g>
</svg>
