<?xml version="1.0" encoding="UTF-8" standalone="no"?>
<!-- Created with Inkscape (http://www.inkscape.org/) -->

<svg
   xmlns:dc="http://purl.org/dc/elements/1.1/"
   xmlns:cc="http://creativecommons.org/ns#"
   xmlns:rdf="http://www.w3.org/1999/02/22-rdf-syntax-ns#"
   xmlns:svg="http://www.w3.org/2000/svg"
   xmlns="http://www.w3.org/2000/svg"
   xmlns:sodipodi="http://sodipodi.sourceforge.net/DTD/sodipodi-0.dtd"
   xmlns:inkscape="http://www.inkscape.org/namespaces/inkscape"
   width="289.19006mm"
   height="289.19006mm"
   viewBox="0 0 289.19008 289.19006"
   version="1.1"
   id="svg8"
   inkscape:version="0.92.1 r15371"
   sodipodi:docname="logo-zetta.svg">
  <defs
     id="defs2" />
  <sodipodi:namedview
     id="base"
     pagecolor="#ffffff"
     bordercolor="#666666"
     borderopacity="1.0"
     inkscape:pageopacity="0.0"
     inkscape:pageshadow="2"
     inkscape:zoom="0.19100907"
     inkscape:cx="1611.7089"
     inkscape:cy="703.18404"
     inkscape:document-units="mm"
     inkscape:current-layer="layer1"
     showgrid="false"
     showguides="true"
     inkscape:object-paths="true"
     inkscape:snap-bbox="true"
     inkscape:snap-bbox-midpoints="true"
     inkscape:window-width="1920"
     inkscape:window-height="1001"
     inkscape:window-x="-9"
     inkscape:window-y="-9"
     inkscape:window-maximized="1"
     inkscape:snap-global="true"
     inkscape:snap-bbox-edge-midpoints="true"
     inkscape:snap-intersection-paths="true"
     inkscape:object-nodes="true"
     inkscape:snap-smooth-nodes="true"
     inkscape:snap-midpoints="true"
     inkscape:bbox-nodes="true"
     inkscape:snap-object-midpoints="true"
     inkscape:bbox-paths="true"
     inkscape:snap-center="true"
     inkscape:snap-nodes="true"
     fit-margin-top="0"
     fit-margin-left="0"
     fit-margin-right="0"
     fit-margin-bottom="0" />
  <metadata
     id="metadata5">
    <rdf:RDF>
      <cc:Work
         rdf:about="">
        <dc:format>image/svg+xml</dc:format>
        <dc:type
           rdf:resource="http://purl.org/dc/dcmitype/StillImage" />
        <dc:title></dc:title>
      </cc:Work>
    </rdf:RDF>
  </metadata>
  <g
     inkscape:label="Layer 1"
     inkscape:groupmode="layer"
     id="layer1"
     transform="translate(-46.220198,-5.1077056)">
    <g
       id="g6571"
       transform="translate(85.815181)">
      <path
         inkscape:connector-curvature="0"
         id="path4587"
         transform="scale(0.26458333)"
         d="M 715.07812,19.304688 C 548.92605,37.00943 380.82307,103.31023 271.4043,233.94922 208.64415,307.00391 165.32276,394.95446 136.11328,486.27344 94.169445,495.30783 52.225051,504.3426 10.28125,513.37695 l 50.5,206.13672 c 27.764334,-6.49493 55.52863,-12.99132 83.29297,-19.48633 l 25.16211,88.53711 152.56055,88.08008 89.25781,-22.47461 24.77343,81.87696 C 503.75092,916.26891 571.67294,896.48887 639.5957,876.71094 626.44782,835.86936 613.30218,795.02907 600.1543,754.1875 708.60285,637.51526 785.0787,484.21987 783.39258,322.36914 783.74596,217.79323 756.26795,114.83123 715.07812,19.304688 Z M 585.94922,157.97266 c 14.53965,0.0256 29.27025,3.74351 42.76562,11.53515 41.12894,23.74561 55.21965,76.33753 31.47461,117.4668 -23.74594,41.12958 -76.33741,55.22087 -117.46679,31.47461 -41.12962,-23.74595 -55.22093,-76.33739 -31.47461,-117.4668 15.95468,-27.63317 44.92949,-43.06225 74.70117,-43.00976 z M 285.83008,384.45898 h 218.13281 v 54.9336 c -25.06667,41.06667 -56.53255,93.86823 -75.19922,145.60156 -18.66667,51.2 -27.73437,95.46641 -27.73437,153.06641 h -66.13282 c 0,-56.53334 11.73321,-113.06797 32.53321,-170.66797 16.53333,-45.86667 41.06575,-93.33229 59.73242,-124.26563 v -1.59961 l -35.19922,0.53321 h -104 l -2.13281,-1.60157 z m -40.67578,66.13477 31.46679,35.19922 v 2.13281 l -79.46679,71.4668 78.40039,67.73437 v 2.66602 l -32,37.33398 -116.26758,-102.40039 v -9.59961 z m 302.85937,0 118.39844,104.5332 v 9.59961 L 550.67969,667.12695 518.14648,630.32617 v -2.66601 l 78.4004,-68.26758 -79.4668,-72 v -2.13281 z"
         style="fill:#007bff;fill-opacity:1;stroke:none;stroke-width:14.25605297;stroke-linecap:round;stroke-linejoin:round;stroke-miterlimit:4;stroke-dasharray:none;stroke-opacity:1;paint-order:markers stroke fill" />
      <path
         inkscape:connector-curvature="0"
         id="path5960"
         d="m 28.238543,290.40507 -1.366381,-3.99556 -6.461096,0.0532 c -4.601829,0.0379 -7.189774,0.54074 -8.993319,1.74714 -2.3371922,1.56327 -2.5776908,1.57319 -3.1225904,0.1287 -1.3295908,-3.52448 0.3729141,-20.74953 2.8854264,-29.1932 1.384757,-4.65369 2.743449,-9.26617 3.019315,-10.25001 0.45075,-1.6075 0.11232,-1.73566 -3.340047,-1.26464 -2.4162865,0.32968 -3.8416239,0.154 -3.8416239,-0.47348 0,-1.79297 15.1911119,-16.14147 20.3660629,-19.23641 6.62994,-3.96513 15.565344,-6.27521 21.120138,-5.4602 10.117339,1.48442 22.713998,10.92877 27.612402,20.70242 3.270446,6.52539 3.838912,15.98991 1.38482,23.05623 -2.946165,8.48321 -8.52223,16.26383 -8.574011,11.96387 -0.0075,-0.64634 -0.372699,-1.75081 -0.810921,-2.45438 -0.606138,-0.97315 -1.763709,-0.208 -4.838073,3.19789 -5.32825,5.90288 -11.616127,8.87072 -18.829011,8.88721 -5.593035,0.0123 -11.031512,2.26862 -12.75412,5.29019 -1.216564,2.13397 -2.018234,1.50806 -3.456971,-2.69914 z"
         style="fill:#007bff;fill-opacity:1;stroke:none;stroke-width:0;stroke-linecap:round;stroke-linejoin:round;stroke-miterlimit:4;stroke-dasharray:none;stroke-opacity:1;paint-order:markers stroke fill" />
      <path
         inkscape:connector-curvature="0"
         id="path6565"
         transform="scale(0.26458333)"
         d="m 749.29883,111.0332 c -33.53495,24.62551 -65.4143,51.52035 -95.44336,80.45899 20.60996,26.77754 24.27787,64.40144 6.33398,95.48242 -23.63249,40.93309 -75.83403,55.0799 -116.875,31.80664 -15.36964,21.22399 -29.90311,43.13754 -43.5664,65.67773 h 4.21484 v 54.9336 c -25.06667,41.06667 -56.53255,93.86823 -75.19922,145.60156 -18.66667,51.2 -27.73437,95.46641 -27.73437,153.06641 h -30.45118 c -6.68604,42.23413 -10.71475,85.39743 -11.90624,129.29883 l 52.38281,-13.18946 24.77343,81.87696 C 503.75092,916.26891 571.67294,896.48887 639.5957,876.71094 626.44782,835.86936 613.30218,795.02907 600.1543,754.1875 708.60285,637.51526 785.0787,484.21987 783.39258,322.36914 783.63532,250.53324 770.74483,179.45901 749.29883,111.0332 Z m -201.28516,339.56055 118.39844,104.5332 v 9.59961 L 550.67969,667.12695 518.14648,630.32617 v -2.66601 l 78.4004,-68.26758 -79.4668,-72 v -2.13281 z"
         style="fill:#005cbf;fill-opacity:1;stroke:none;stroke-width:14.25605297;stroke-linecap:round;stroke-linejoin:round;stroke-miterlimit:4;stroke-dasharray:none;stroke-opacity:1;paint-order:markers stroke fill" />
    </g>
  </g>
</svg>
